<svg xmlns="http://www.w3.org/2000/svg" viewBox="0 0 192 192">
  <defs>
    <linearGradient id="bg" x1="0%" y1="0%" x2="100%" y2="100%">
      <stop offset="0%" style="stop-color:#3b82f6"/>
      <stop offset="100%" style="stop-color:#10b981"/>
    </linearGradient>
  </defs>
  <rect width="192" height="192" rx="40" fill="url(#bg)"/>
  <g transform="translate(48, 40)">
    <path d="M48 8c0 0-20 28-20 52 0 13.3 10.7 24 24 24s24-10.7 24-24C76 36 56 8 48 8z" fill="rgba(255,255,255,0.9)"/>
    <path d="M36 72c0 0-12 16-12 28 0 8.8 7.2 16 16 16s16-7.2 16-16C56 88 44 72 36 72z" fill="rgba(255,255,255,0.5)"/>
  </g>
  <circle cx="130" cy="52" r="18" fill="rgba(255,255,255,0.3)"/>
  <text x="96" y="155" text-anchor="middle" font-family="Arial,sans-serif" font-size="28" font-weight="800" fill="white">DA</text>
</svg>